# xmcd
#
# Track frame offsets:
#	300
#	17204
#	32427
#	53400
#	70523
#	86137
#	102739
#	120856
#	139498
#	154367
#	168215
#	184800
#	200047
#	222256
#	240885
#
# Disc length: 3456 seconds
#
# Revision: 1
# Processed by: cddbd v1.5.2PL0 Copyright (c) Steve Scherf et al.
# Submitted via: audiograbber 1.83.01
#
DISCID=cb0d7c0f
DTITLE=Semino Rossi - Augenblicke
DYEAR=2011
DGENRE=Schlager
TTITLE0=Das Tor zum Himmel ist die Liebe
TTITLE1=Aber Du machst mein Glück vollkommen
TTITLE2=Heil mir mein Herz
TTITLE3=Melodia Desencadenada
TTITLE4=Allein die Liebe zählt im Leben
TTITLE5=Alles, was die Welt für Dich schöner macht
TTITLE6=Lago azul
TTITLE7=Ich sing dieses Lied
TTITLE8=Los Recuerdos de tu Amor
TTITLE9=Sag nochmal, dass Du mich lieb hast
TTITLE10=Tanz mit mir
TTITLE11=Himmel auf Erden
TTITLE12=Te Quiero Argentina
TTITLE13=Ich bleib nur wegen Dir
TTITLE14=Ich wein vor Glück weil es Dich gibt
EXTD=
EXTT0=
EXTT1=
EXTT2=(Deutsche Version von) "UNBREAK MY HEART"
EXTT3=(Spanische Version von) "UNCHAINED MELODY"
EXTT4=
EXTT5=
EXTT6=(Spanische Version von) "BLUE BAYOU"
EXTT7=
EXTT8=(Spanische Version von) "PLEASE RELEASE ME"
EXTT9=
EXTT10=
EXTT11=
EXTT12=
EXTT13=
EXTT14=
PLAYORDER=
